<?xml version="1.0" encoding="utf-8"?>
<!-- Generator: Adobe Illustrator 23.0.3, SVG Export Plug-In . SVG Version: 6.00 Build 0)  -->
<svg version="1.1" id="Capa_1" xmlns="http://www.w3.org/2000/svg" xmlns:xlink="http://www.w3.org/1999/xlink" x="0px" y="0px"
	 viewBox="0 0 252 245" style="enable-background:new 0 0 252 245;" xml:space="preserve">
<style type="text/css">
	.st0{fill:#E65050;}
	.st1{fill:#C8C8C8;}
	.st2{fill:#FFFFFF;}
</style>
<g>
	<g>
		<g>
			<g>
				<path class="st0" d="M156.6,82v0.2V82C156.6,82,156.6,82,156.6,82z"/>
				<rect x="49.5" y="50" class="st0" width="197" height="192.9"/>
				<g>
					<g>
						<path class="st1" d="M65.2,122.1l9.9,0l0,8.6l-9.9,0L65.2,122.1z M65.2,135.8l9.9,0l0,32.3l-9.9,0L65.2,135.8z"/>
						<path class="st1" d="M113.5,148.6l0,19.4l-9.9,0l0-19.4c0-2.9-1.3-4.8-5.1-4.8c-2.4,0-4.6,1-6.8,2.8l0,21.5l-9.9,0l0-32.3
							l9.9,0v2.6c2.8-2.2,5.7-3.3,9-3.3C109.1,135.1,113.5,139.1,113.5,148.6z"/>
						<path class="st1" d="M131.3,131.2l0,4.5l6.3,0l0,8.8l-6.3,0l0,23.5l-9.9,0l0-23.5h-3.9l0-8.8h3.9l0-8.1c0-5.4,3.1-8.6,10-8.6
							c2.2,0,4,0.3,6.2,0.8l0,8.4c-0.9-0.3-1.9-0.4-3.4-0.4C132,127.8,131.3,128.7,131.3,131.2z"/>
						<path class="st1" d="M139.6,151.9c0-9.4,5.9-17.1,17.6-17.1c11.7,0,17.6,7.6,17.6,17.1c0,9.5-5.8,17.1-17.5,17.1
							C145.5,169,139.6,161.4,139.6,151.9z M165.1,151.8c0-5.5-2.7-8.6-7.9-8.6c-5.2,0-8,3.1-8,8.6c0,5.6,2.8,8.7,8,8.7
							C162.5,160.5,165.2,157.4,165.1,151.8z"/>
						<path class="st1" d="M179.2,159.2l23.1,0l0,8.8l-23.1,0L179.2,159.2z"/>
					</g>
					<g>
						<path class="st2" d="M65.2,110.1l0-8.7c4.5,2.6,8.9,3.4,13.7,3.4c2.8,0,3.7-0.9,3.7-2.2c0-1.2-0.6-1.8-2.2-2.1l-5.5-1.1
							c-6.4-1.3-9.3-4.3-9.3-9.7c0-7.3,4.5-10.8,13.7-10.8c4,0,8.4,0.9,11.9,2l0,8.4c-2.9-1.4-7.4-2.3-11.4-2.3
							c-3.3,0-4.2,0.7-4.2,1.9c0,1,0.7,1.3,2,1.6l5.5,1.1c6.5,1.3,9.5,4,9.5,10.3c0,7.7-5.6,11-13.7,11
							C73.5,113,69.8,112.3,65.2,110.1z"/>
						<path class="st2" d="M149.2,92.5l0,19.4l-9.9,0l0-19.4c0-2.9-1.1-4.8-4.6-4.8c-2.2,0-4.3,1-6.3,2.8c0.1,0.6,0.1,1.3,0.1,2.1
							l0,19.4l-9.9,0l0-19.4c0-2.9-1.1-4.8-4.6-4.8c-2.2,0-4.2,1-6.2,2.6l0,21.6l-9.9,0l0-32.3l9.9,0v2.5c2.6-2.2,5.2-3.2,8.4-3.2
							c5,0,8.4,1.5,10.4,4.8c3.3-3.3,6.4-4.9,10.3-4.9C145,78.9,149.2,82.9,149.2,92.5z"/>
						<path class="st2" d="M209.6,78.8l0,8.8h-1.3c-3.2,0-6.2,1.3-8.8,3.2l0,21.1l-9.9,0l0-32.3l9.9,0v2.8c2.8-2.3,5.5-3.6,8.8-3.6
							L209.6,78.8z"/>
						<path class="st2" d="M223.5,88.2l0,12.2c0,2.5,0.7,3.4,2.9,3.4c1.4,0,2.4-0.2,3.4-0.5l0,8.4c-2.2,0.5-3.9,0.8-6.2,0.8
							c-6.9,0-10.1-3.2-10.1-8.6l0-15.8l0-8.8l0-13.7l9.9,0l0,13.8l7.3,0l0,8.7L223.5,88.2z"/>
						<path class="st2" d="M183.2,111.9l0-19c0-1,0-2-0.1-2.9h0c-0.8-8-5.1-11.1-14.8-11.1c-8.4,0-11.7,1.8-11.7,1.8v8
							c1-0.7,3.9-1.5,8.3-1.5c2.2,0,4.8,0.3,6.6,1.6c1.3,0.9,1.6,2.3,1.7,3.9c-2.3-1.2-4.9-1.7-7.9-1.7c-7.5,0-12,3.8-12,10.8
							c0,6.9,4.5,10.9,11.7,10.9c3,0,5.5-0.9,8.2-3.4v2.6L183.2,111.9z M167.1,105c-2.2,0-3.8-0.7-3.8-3.4c0-2.6,1.8-3.6,4.3-3.6
							c2,0,3.8,0.5,5.5,1.3l0,3C171.1,104.1,169.1,105,167.1,105z"/>
					</g>
				</g>
			</g>
			<polyline class="st0" points="49.5,21.5 29.5,21.5 28.7,21.5 21.7,21.5 21.7,13.8 29.5,13.8 29.5,17.1 49.5,17.1 49.5,2.2 
				1.7,2.2 1.7,25.9 21.7,25.9 22.4,25.9 29.5,25.9 29.5,38.4 21.7,38.4 21.7,30.2 1.7,30.2 1.7,50 49.5,50 			"/>
		</g>
	</g>
</g>
</svg>
